<svg width="42" height="35" viewBox="0 0 42 35" fill="none" xmlns="http://www.w3.org/2000/svg">
<path fill-rule="evenodd" clip-rule="evenodd" d="M10 29.5625C10 29.1481 10.1646 28.7507 10.4576 28.4576C10.7507 28.1646 11.1481 28 11.5625 28H39.6875C40.1019 28 40.4993 28.1646 40.7924 28.4576C41.0854 28.7507 41.25 29.1481 41.25 29.5625C41.25 29.9769 41.0854 30.3743 40.7924 30.6674C40.4993 30.9604 40.1019 31.125 39.6875 31.125H11.5625C11.1481 31.125 10.7507 30.9604 10.4576 30.6674C10.1646 30.3743 10 29.9769 10 29.5625ZM10 17.0625C10 16.6481 10.1646 16.2507 10.4576 15.9576C10.7507 15.6646 11.1481 15.5 11.5625 15.5H39.6875C40.1019 15.5 40.4993 15.6646 40.7924 15.9576C41.0854 16.2507 41.25 16.6481 41.25 17.0625C41.25 17.4769 41.0854 17.8743 40.7924 18.1674C40.4993 18.4604 40.1019 18.625 39.6875 18.625H11.5625C11.1481 18.625 10.7507 18.4604 10.4576 18.1674C10.1646 17.8743 10 17.4769 10 17.0625ZM10 4.5625C10 4.1481 10.1646 3.75067 10.4576 3.45765C10.7507 3.16462 11.1481 3 11.5625 3H39.6875C40.1019 3 40.4993 3.16462 40.7924 3.45765C41.0854 3.75067 41.25 4.1481 41.25 4.5625C41.25 4.9769 41.0854 5.37433 40.7924 5.66735C40.4993 5.96038 40.1019 6.125 39.6875 6.125H11.5625C11.1481 6.125 10.7507 5.96038 10.4576 5.66735C10.1646 5.37433 10 4.9769 10 4.5625Z" fill="white"/>
<path d="M4.00661 0.856234C4.05978 0.683917 4.16675 0.533167 4.31185 0.426086C4.45694 0.319006 4.63253 0.26123 4.81286 0.26123C4.99319 0.26123 5.16878 0.319006 5.31388 0.426086C5.45897 0.533167 5.56595 0.683917 5.61911 0.856234L6.12536 2.51248C6.23474 2.87186 6.56286 3.11873 6.93161 3.11873H8.65349C9.46286 3.11873 9.80974 4.15936 9.16599 4.65936L7.70349 5.79373C7.56528 5.90182 7.46319 6.04935 7.41073 6.21677C7.35827 6.3842 7.35792 6.56361 7.40974 6.73123L7.95036 8.50936C8.19411 9.30936 7.28474 9.95311 6.62849 9.44686L5.32536 8.43436C5.17886 8.32033 4.99851 8.25841 4.81286 8.25841C4.62721 8.25841 4.44686 8.32033 4.30036 8.43436L2.99724 9.44373C2.34099 9.95311 1.43474 9.30936 1.67536 8.50936L2.21599 6.72811C2.26711 6.56092 2.26641 6.38216 2.21397 6.21538C2.16154 6.04859 2.05983 5.9016 1.92224 5.79373L0.459736 4.65936C-0.184014 4.15936 0.162861 3.11873 0.972236 3.11873H2.69099C2.87316 3.11818 3.05029 3.05889 3.1961 2.94968C3.3419 2.84046 3.4486 2.68715 3.50036 2.51248L4.00661 0.856234ZM4.00661 13.3562C4.05978 13.1839 4.16675 13.0332 4.31185 12.9261C4.45694 12.819 4.63253 12.7612 4.81286 12.7612C4.99319 12.7612 5.16878 12.819 5.31388 12.9261C5.45897 13.0332 5.56595 13.1839 5.61911 13.3562L6.12536 15.0125C6.23474 15.3719 6.56286 15.6187 6.93161 15.6187H8.65349C9.46286 15.6187 9.80974 16.6594 9.16599 17.1594L7.70349 18.2937C7.56528 18.4018 7.46319 18.5494 7.41073 18.7168C7.35827 18.8842 7.35792 19.0636 7.40974 19.2312L7.95036 21.0094C8.19411 21.8062 7.28474 22.4531 6.62849 21.9469L5.32536 20.9344C5.17886 20.8203 4.99851 20.7584 4.81286 20.7584C4.62721 20.7584 4.44686 20.8203 4.30036 20.9344L2.99724 21.9437C2.34099 22.4531 1.43474 21.8094 1.67536 21.0094L2.21599 19.2281C2.26711 19.0609 2.26641 18.8822 2.21397 18.7154C2.16154 18.5486 2.05983 18.4016 1.92224 18.2937L0.459736 17.1594C-0.184014 16.6594 0.162861 15.6187 0.972236 15.6187H2.69099C2.87316 15.6182 3.05029 15.5589 3.1961 15.4497C3.3419 15.3405 3.4486 15.1871 3.50036 15.0125L4.00661 13.3562ZM4.00661 25.8562C4.05978 25.6839 4.16675 25.5332 4.31185 25.4261C4.45694 25.319 4.63253 25.2612 4.81286 25.2612C4.99319 25.2612 5.16878 25.319 5.31388 25.4261C5.45897 25.5332 5.56595 25.6839 5.61911 25.8562L6.12536 27.5125C6.23474 27.8719 6.56286 28.1187 6.93161 28.1187H8.65349C9.46286 28.1187 9.80974 29.1594 9.16599 29.6594L7.70349 30.7937C7.56528 30.9018 7.46319 31.0493 7.41073 31.2168C7.35827 31.3842 7.35792 31.5636 7.40974 31.7312L7.95036 33.5094C8.19411 34.3062 7.28474 34.9531 6.62849 34.4469L5.32536 33.4344C5.17886 33.3203 4.99851 33.2584 4.81286 33.2584C4.62721 33.2584 4.44686 33.3203 4.30036 33.4344L2.99724 34.4437C2.34099 34.9531 1.43474 34.3094 1.67536 33.5094L2.21599 31.7281C2.26711 31.5609 2.26641 31.3822 2.21397 31.2154C2.16154 31.0486 2.05983 30.9016 1.92224 30.7937L0.459736 29.6594C-0.184014 29.1594 0.162861 28.1187 0.972236 28.1187H2.69099C2.87316 28.1182 3.05029 28.0589 3.1961 27.9497C3.3419 27.8405 3.4486 27.6871 3.50036 27.5125L4.00661 25.8562Z" fill="#ED1D24"/>
</svg>
